# xmcd
#
# Track frame offsets: 
#        150
#        14852
#        28217
#        42952
#        56782
#        69847
#        82807
#        95915
#        110147
#        122455
#        136060
#        151137
#        165755
#        180125
#        194542
#        208817
#        223135
#        236220
#
# Disc length: 3309 seconds
#
# Revision: 0
# Processed by: cddbd v1.5.1PL0 Copyright (c) Steve Scherf et al.
# Submitted via: ExactAudioCopy v0.95a5
#
DISCID=fb0ceb12
DTITLE=Sleepy John Estes - The Blues - From Memphis to Chicago 1929-19
DTITLE=41 [CD1]
DYEAR=1900
DGENRE=Blues
TTITLE0=Broken Hearted Ragged and Dirty Too
TTITLE1=The Girl I Love She Got Long Curly Hair
TTITLE2=Divin' Duck Blues
TTITLE3=Milk Cow Blues
TTITLE4=Poor John Blues
TTITLE5=Stack O' Dollars 
TTITLE6=My Black Gal Blues
TTITLE7=Down South Blues
TTITLE8=Stop That Thing
TTITLE9=Someday Baby Blues
TTITLE10=Who's Been Telling You, Buddy Brown Blues
TTITLE11=Married Woman Blues
TTITLE12=Drop Down Mama
TTITLE13=Government Money
TTITLE14=Vernita Blues
TTITLE15=Floating Bridge
TTITLE16=Need More Blues
TTITLE17=Jack and Jill Blues
EXTD=
EXTT0=
EXTT1=
EXTT2=
EXTT3=
EXTT4=
EXTT5=
EXTT6=
EXTT7=
EXTT8=
EXTT9=
EXTT10=
EXTT11=
EXTT12=
EXTT13=
EXTT14=
EXTT15=
EXTT16=
EXTT17=
PLAYORDER=
